<?xml version="1.0" encoding="UTF-8"?>
<svg width="88px" height="88px" viewBox="0 0 88 88" version="1.1" xmlns="http://www.w3.org/2000/svg" xmlns:xlink="http://www.w3.org/1999/xlink">
    <!-- Generator: Sketch 55.2 (78181) - https://sketchapp.com -->
    <title>Group 12</title>
    <desc>Created with Sketch.</desc>
    <g id="Landing-Page-Screens" stroke="none" stroke-width="1" fill="none" fill-rule="evenodd">
        <g id="Sugary-Bill" transform="translate(-711.000000, -274.000000)">
            <g id="Group-12" transform="translate(711.000000, 274.000000)">
                <g id="Group-3">
                    <polygon id="Clip-2" points="0 0.378898255 76.721876 0.378898255 76.721876 87.9996928 0 87.9996928"></polygon>
                    <path d="M4.098556,4.46735053 L4.098556,74.8579099 C4.098556,79.8221739 8.198036,83.6190985 12.885796,83.6190985 L65.008636,83.6190985 C62.960436,81.281348 61.497436,78.068093 61.497436,74.8579099 L61.497436,4.46735053 L4.098556,4.46735053 Z M74.673676,87.9996928 L13.178396,87.9996928 C5.857236,87.9996928 -0.000924,82.1599244 -0.000924,74.8579099 L-0.000924,2.42143482 C-0.000924,1.25409553 0.876876,0.37859106 2.050356,0.37859106 L63.838236,0.37859106 C65.008636,0.37859106 65.889516,1.25409553 65.889516,2.42143482 L65.889516,74.8579099 C65.889516,79.8221739 69.988996,83.6190985 74.673676,83.6190985 C75.844076,83.6190985 76.721876,84.494603 76.721876,85.6619423 C76.721876,86.8323535 75.844076,87.9996928 74.673676,87.9996928 L74.673676,87.9996928 Z" id="Fill-1" fill="#F55FAC"></path>
                </g>
                <path d="M65.7857409,22.9071866 L65.7857409,74.9826545 C65.7857409,79.8999126 69.9859761,83.6608848 74.7889498,83.6608848 C79.8885593,83.6608848 83.7890031,79.6108411 83.7890031,74.9826545 L83.7890031,22.9071866 L65.7857409,22.9071866 Z M61.2857143,74.9826545 L61.2857143,20.8806433 C61.2857143,19.7243573 62.1850885,18.8571429 63.384254,18.8571429 L85.8875429,18.8571429 C87.0898641,18.8571429 87.9892383,19.7243573 87.9892383,20.8806433 L87.9892383,74.9826545 C88.2890297,82.2155274 82.2868904,88 74.7889498,88 C67.2878536,88 61.2857143,82.2155274 61.2857143,74.9826545 Z" id="Fill-4" fill="#F55FAC"></path>
                <path d="M16.2196529,61.2857143 C15.0333573,61.2857143 14.1428571,60.6127509 14.1428571,59.7131051 C14.1428571,58.8158205 15.0333573,58.1428571 16.2196529,58.1428571 L32.5008601,58.1428571 C33.6840421,58.1428571 34.5714286,58.8158205 34.5714286,59.7131051 C34.5714286,60.6127509 33.6840421,61.2857143 32.5008601,61.2857143 L16.2196529,61.2857143 Z" id="Fill-6"></path>
                <path d="M16.1595343,72.2857143 C15.0058496,72.2857143 14.1428571,71.6127509 14.1428571,70.7131051 C14.1428571,69.8158205 15.0058496,69.1428571 16.1595343,69.1428571 L49.8434937,69.1428571 C50.9941504,69.1428571 51.8571429,69.8158205 51.8571429,70.7131051 C51.8571429,71.6127509 50.9941504,72.2857143 49.8434937,72.2857143 L16.1595343,72.2857143 Z" id="Fill-8"></path>
                <path d="M28.2736771,36.7988832 C28.2736771,31.2302466 24.2747588,29.1766962 21.3414709,27.419153 C18.9438025,25.9514503 17.8753678,25.3656026 17.8753678,24.1939072 C17.8753678,21.2615852 19.4738134,20.6757375 20.0094329,20.6757375 C22.6763132,19.7969659 24.8103783,22.7262045 24.8103783,23.0191283 C25.3403892,23.9009833 26.6752315,24.1939072 27.4744543,23.6080595 C28.2736771,23.0191283 28.542889,21.5545091 28.0072695,20.6757375 C28.0072695,20.3828136 26.139612,17.7434155 23.2063241,16.864644 L23.2063241,13.0535504 C23.2063241,11.8787716 22.4071013,11 21.3414709,11 C20.2758405,11 19.2102101,11.8787716 19.2102101,13.0535504 L19.2102101,16.2787962 L18.9438025,16.2787962 C16.0105146,17.4504917 14.1428571,20.0898898 14.1428571,24.1939072 C14.1428571,28.0050007 17.3453569,29.7625439 19.7430253,31.2302466 C22.6763132,32.9877897 24.5411664,34.1594851 24.5411664,36.7988832 C24.5411664,40.0241291 22.1406937,41.1958245 20.5422481,41.1958245 C19.7430253,41.1958245 17.8753678,40.9029006 17.8753678,37.6776548 C17.8753678,36.5059594 17.076145,35.6271878 16.0105146,35.6271878 C14.9420799,35.6271878 14.1428571,36.5059594 14.1428571,37.6776548 C14.1428571,40.6099768 15.2112918,42.3706033 16.2769222,43.2493749 C17.076145,44.1281465 18.1445797,44.7139942 19.4738134,45.006918 L19.4738134,48.2321639 C19.4738134,49.4038593 20.2758405,50.2857143 21.3414709,50.2857143 C22.4071013,50.2857143 23.2063241,49.4038593 23.2063241,48.2321639 L23.2063241,44.7139942 C25.8760087,43.8352226 28.2736771,40.9029006 28.2736771,36.7988832" id="Fill-10"></path>
            </g>
        </g>
    </g>
</svg>